<!DOCTYPE svg PUBLIC "-//W3C//DTD SVG 1.1//EN" "http://www.w3.org/Graphics/SVG/1.1/DTD/svg11.dtd">
<!-- Uploaded to: SVG Repo, www.svgrepo.com, Transformed by: SVG Repo Mixer Tools -->
<svg height="800px" width="800px" version="1.1" id="Capa_1" xmlns="http://www.w3.org/2000/svg" xmlns:xlink="http://www.w3.org/1999/xlink" viewBox="-5.96 -5.96 71.47 71.47" xml:space="preserve" fill="#64ffda" stroke="#64ffda">
<g id="SVGRepo_bgCarrier" stroke-width="0">
<path transform="translate(-5.96, -5.96), scale(2.2334375)" d="M16,27.81517527311256C17.55747587180291,26.992417714390783,17.805143408644383,24.190196883246237,19.55438504265625,23.983279514421042C22.36963277402204,23.650264542767697,25.201374811012133,27.95681032105516,27.59835786907218,26.44320833252627C29.60071908168257,25.17879475940194,27.255516355553947,21.775437452509344,26.694206912898665,19.47475846159088C26.312143402237044,17.908767538620488,25.000616663181006,16.67478049390265,24.824192701322552,15.07253997429053C24.64896029516396,13.481120880541331,25.922968163025693,11.987206303640814,25.69524749090747,10.402446251264532C25.446342124431315,8.670257083086153,25.083164088101164,6.404838202834932,23.478400428513822,5.706864856149698C21.710431017187823,4.93790706009788,19.82441932281055,7.240616148146457,17.909574549254096,7.016158079285452C16.236569173462605,6.820048420147504,15.23768171733424,4.744762584320191,13.565128734568432,4.54483133194673C11.864536276192513,4.341548336739177,9.824160279698638,4.645925259069261,8.670453894457989,5.9117452550720735C7.459601451313889,7.240264585768983,8.746507281466107,9.775722792683002,7.563795780049652,11.129355222673004C5.975250918004468,12.947470493542596,2.2498939981500574,12.265161503545148,1.2138787483277653,14.445916033297411C0.3387991914344102,16.287909872592852,2.5091545582031856,18.24564094849328,3.2876003180253583,20.130509043058492C4.018995936972565,21.901453581279483,4.4968166093664985,23.78402790110114,5.6897342832519,25.28340494914535C6.911681439391258,26.819269124810383,8.353433850693843,28.425401294357968,10.259468946568608,28.893443847745985C12.171157983385745,29.362874772712836,14.259453827839407,28.734642178106515,16,27.81517527311256" fill="#f97316" strokewidth="0"/>
</g>
<g id="SVGRepo_tracerCarrier" stroke-linecap="round" stroke-linejoin="round"/>
<g id="SVGRepo_iconCarrier"> <g> <path style="fill:#0a192f;" d="M34.176,29.141c6.124-4.009,8.989-12.027,5.897-19.164c-1.959-4.52-5.764-7.752-10.502-9.061 c-4.804-1.327-12.29-1.379-16.82,0.969c-0.125,0.065-0.141,0.214-0.086,0.328c-0.494-0.455-1.469-0.281-1.437,0.577 c0.648,17.484,0.725,35.027,1.576,52.496c0.015,0.298,0.15,0.505,0.333,0.638c0.033,0.378,0.269,0.712,0.777,0.794 c6.722,1.083,15.518,4.073,22.31,2.275c4.576-1.212,10.043-5.6,11.563-10.164C50.497,40.703,42.54,30.393,34.176,29.141z M45.362,43.291c-2.397-0.09-4.817,0.012-7.216,0.05c-0.53-1.744-1.757-2.963-3.322-3.811c3.146,0.469,6.375,0.717,9.544,0.746 C44.823,41.293,45.165,42.3,45.362,43.291z M24.085,39.278c0.009,0,0.014,0.004,0.023,0.004c4.293-0.051,11.38,0.046,12.231,5.652 c0.468,3.082-2.338,4.774-5.075,4.786c-2.43,0.01-4.548-1.194-6.775-1.974C24.771,45.015,24.776,41.953,24.085,39.278z M34.613,31.094c-1.487-0.092-2.999-0.113-4.518-0.064c0.427-0.13,0.847-0.272,1.257-0.433 C32.503,30.63,33.589,30.803,34.613,31.094z M37.842,21.555c-2.051,0.266-4.011,0.479-6.055,0.438 c0.717-0.817,1.276-1.756,1.591-2.741c1.781,0.076,3.608,0.134,5.349-0.029C38.503,20.021,38.211,20.803,37.842,21.555z M38.827,18.855c-1.737-0.172-3.563-0.115-5.345-0.039c0.05-0.209,0.111-0.417,0.138-0.628c0.086-0.679,0.078-1.331,0.018-1.965 c1.84,0.118,3.776,0.177,5.564-0.164C39.179,17.003,39.055,17.94,38.827,18.855z M39.201,15.708 c-1.865-0.007-3.719,0.162-5.588,0.159c-0.163-1.2-0.583-2.301-1.183-3.287c1.98,0.088,4.143,0.107,6-0.479 c0.149-0.047,0.129-0.286-0.038-0.281c-2.059,0.062-4.074,0.421-6.139,0.461c-0.536-0.809-1.205-1.527-1.966-2.146 c2.504-0.102,5-0.091,7.506-0.153C38.744,11.846,39.196,13.791,39.201,15.708z M23.415,21.557c-0.088-0.041-0.174-0.056-0.26-0.072 c0.026-2.079-0.115-4.17-0.224-6.241c-0.107-2.038-0.08-4.165-0.659-6.129c4.263,0.406,8.936,2.449,9.36,7.323 C32.08,21.583,27.432,23.433,23.415,21.557z M43.076,51.77c-6.307,0.278-12.615,0.616-18.917,0.997 c-0.143,0.009-0.146,0.23,0,0.225c6.156-0.193,12.314-0.43,18.466-0.721c-0.279,0.289-0.576,0.576-0.898,0.858 c-0.562,0.493-1.141,0.924-1.733,1.308c-0.022-0.026-0.052-0.044-0.091-0.043c-5.93,0.101-11.809,0.406-17.749,0.314 c-0.105-0.002-0.1,0.149,0,0.159c5.695,0.581,11.744,0.701,17.427-0.167c-7.389,4.459-16.838,1.187-25.081-0.07 c0.755-17.178-0.198-34.721-1.556-51.841c-0.016-0.207-0.102-0.363-0.211-0.493c0.024,0.019,0.046,0.043,0.079,0.051 c3.129,0.771,6.47-0.137,9.671-0.151c3.075-0.014,6.176,0.389,8.896,1.622c-3.671-0.178-7.433-0.054-11.003,0.635 c-0.137,0.026-0.107,0.252,0.033,0.244c4.128-0.232,8.141-0.413,12.254-0.21c1.17,0.685,2.252,1.547,3.2,2.639 c-3.631-0.397-7.313-0.549-10.958-0.48c-0.184,0.003-0.184,0.28,0,0.286c3.808,0.114,7.579,0.375,11.368,0.71 c0.498,0.633,0.941,1.279,1.307,1.94c-2.53-0.166-5.14,0.001-7.661,0.289c-2.165-1.609-4.99-2.441-7.791-2.123 c-0.323,0.037-0.527,0.227-0.609,0.453c-0.249-0.01-0.491,0.12-0.56,0.43c-0.516,2.332-0.145,4.786,0.026,7.15 c0.173,2.396,0.3,4.814,0.719,7.181c0.089,0.504,0.568,0.608,0.946,0.446c2.659,2.487,6.451,1.357,8.821-1.071 c2.022,0.18,4.167,0.141,6.139-0.328c-0.398,0.743-0.858,1.46-1.388,2.133c-2.085-0.028-4.245,0.335-6.312,0.521 c-0.219,0.02-0.225,0.362,0,0.347c1.948-0.131,3.997-0.128,5.947-0.414c-0.644,0.754-1.364,1.458-2.165,2.087 c-0.01-0.001-0.016-0.011-0.027-0.01c-2.518,0.232-5.03,0.698-7.53,1.071c-0.132,0.02-0.102,0.251,0.032,0.235 c2.309-0.278,4.647-0.491,6.945-0.866c-1.229,0.874-2.611,1.593-4.126,2.104c-0.938,0.317-0.883,1.472-0.244,1.876 c-1.545,0.082-3.085,0.202-4.584,0.357c-0.135,0.014-0.142,0.219,0,0.216c3.735-0.079,7.523-0.02,11.249-0.23 c0.049-0.003,0.086-0.022,0.111-0.05c1.3,0.477,2.494,1.155,3.583,2.001c-4.406-0.251-8.86-0.06-13.224,0.547 c-0.135,0.019-0.104,0.251,0.033,0.239c4.63-0.41,9.185-0.473,13.818-0.281c0.673,0.585,1.307,1.228,1.893,1.94 c-5.402-0.248-10.931,0.295-16.245,1.125c-0.183,0.029-0.142,0.35,0.044,0.327c5.553-0.685,11.025-0.821,16.591-0.967 c0.576,0.752,1.109,1.561,1.595,2.424c0.178,0.315,0.336,0.629,0.491,0.943c-3.429-0.237-6.867-0.456-10.297-0.639 c-3.011-1.233-6.877-1.365-9.688-1.141c-0.228,0.018-0.395,0.124-0.506,0.267c-0.508-0.389-1.407-0.165-1.378,0.629 c0.116,3.171,0.577,6.296,0.621,9.485c0.003,0.196,0.067,0.341,0.152,0.461c0.035,0.269,0.162,0.526,0.436,0.694 c3.464,2.123,10.423,3.547,13.488,0.289c2.571-0.108,5.181-0.138,7.747-0.335C44.273,50.205,43.748,50.999,43.076,51.77z M38.661,46.765c2.287-0.264,4.594-0.279,6.882-0.468c-0.086,0.876-0.289,1.736-0.639,2.576c-2.535-0.055-5.154,0.211-7.674,0.508 c0.626-0.806,1.052-1.844,1.173-3.184c0.083-0.914,0.022-1.73-0.151-2.465c2.392,0.04,4.804,0.14,7.192,0.046 c0.103,0.67,0.151,1.333,0.125,1.988c-2.311-0.051-4.696,0.319-6.956,0.645C38.414,46.439,38.459,46.788,38.661,46.765z"/> </g> </g>
</svg>